<svg width="123" height="75" viewBox="0 0 123 75" fill="none" xmlns="http://www.w3.org/2000/svg">
<path d="M24.9575 3.4C24.9575 4.62667 24.8508 5.69333 24.6375 6.6H19.8375C20.0508 7.45333 20.1575 8.52 20.1575 9.8C20.1575 11.0267 20.0508 12.0933 19.8375 13C20.0508 13.8533 20.1575 14.92 20.1575 16.2C20.1575 17.4267 20.0508 18.4933 19.8375 19.4C20.0508 20.2533 20.1575 21.32 20.1575 22.6C20.1575 23.8267 20.0508 24.8933 19.8375 25.8C20.0508 26.6533 20.1575 27.72 20.1575 29C20.1575 30.2267 20.0508 31.2933 19.8375 32.2C20.0508 33.0533 20.1575 34.12 20.1575 35.4C20.1575 36.6267 20.0508 37.6933 19.8375 38.6H16.6375C16.8508 39.4533 16.9575 40.52 16.9575 41.8C16.9575 43.0267 16.8508 44.0933 16.6375 45H3.8375C3.62417 44.0933 3.5175 43.0267 3.5175 41.8C3.5175 40.52 3.62417 39.4533 3.8375 38.6H0.6375C0.424167 37.6933 0.3175 36.6267 0.3175 35.4C0.3175 34.12 0.424167 33.0533 0.6375 32.2H7.0375C7.25083 33.0533 7.3575 34.12 7.3575 35.4C7.3575 36.6267 7.25083 37.6933 7.0375 38.6H13.4375C13.2242 37.6933 13.1175 36.6267 13.1175 35.4C13.1175 34.12 13.2242 33.0533 13.4375 32.2C13.2242 31.2933 13.1175 30.2267 13.1175 29C13.1175 27.72 13.2242 26.6533 13.4375 25.8C13.2242 24.8933 13.1175 23.8267 13.1175 22.6C13.1175 21.32 13.2242 20.2533 13.4375 19.4C13.2242 18.4933 13.1175 17.4267 13.1175 16.2C13.1175 14.92 13.2242 13.8533 13.4375 13C13.2242 12.0933 13.1175 11.0267 13.1175 9.8C13.1175 8.52 13.2242 7.45333 13.4375 6.6H8.6375C8.42417 5.69333 8.3175 4.62667 8.3175 3.4C8.3175 2.12 8.42417 1.05333 8.6375 0.2H24.6375C24.8508 1.05333 24.9575 2.12 24.9575 3.4ZM58.2688 19.4C58.4821 20.2533 58.5888 21.32 58.5888 22.6C58.5888 23.8267 58.4821 24.8933 58.2688 25.8C58.4821 26.6533 58.5888 27.72 58.5888 29C58.5888 30.2267 58.4821 31.2933 58.2688 32.2H55.8688C56.0821 33.0533 56.1888 34.12 56.1888 35.4C56.1888 36.6267 56.0821 37.6933 55.8688 38.6H51.8688C52.0821 39.4533 52.1888 40.52 52.1888 41.8C52.1888 43.0267 52.0821 44.0933 51.8688 45H39.0688C38.8554 44.0933 38.7488 43.0267 38.7488 41.8C38.7488 40.52 38.8554 39.4533 39.0688 38.6H35.0688C34.8554 37.6933 34.7487 36.6267 34.7487 35.4C34.7487 34.12 34.8554 33.0533 35.0688 32.2H32.6688C32.4554 31.2933 32.3488 30.2267 32.3488 29C32.3488 27.72 32.4554 26.6533 32.6688 25.8C32.4554 24.8933 32.3488 23.8267 32.3488 22.6C32.3488 21.32 32.4554 20.2533 32.6688 19.4C32.4554 18.4933 32.3488 17.4267 32.3488 16.2C32.3488 14.92 32.4554 13.8533 32.6688 13H35.0688C34.8554 12.0933 34.7487 11.0267 34.7487 9.8C34.7487 8.52 34.8554 7.45333 35.0688 6.6H39.0688C38.8554 5.69333 38.7488 4.62667 38.7488 3.4C38.7488 2.12 38.8554 1.05333 39.0688 0.2H51.8688C52.0821 1.05333 52.1888 2.12 52.1888 3.4C52.1888 4.62667 52.0821 5.69333 51.8688 6.6H55.8688C56.0821 7.45333 56.1888 8.52 56.1888 9.8C56.1888 11.0267 56.0821 12.0933 55.8688 13H58.2688C58.4821 13.8533 58.5888 14.92 58.5888 16.2C58.5888 17.4267 58.4821 18.4933 58.2688 19.4ZM51.8688 32.2C51.6554 31.2933 51.5488 30.2267 51.5488 29C51.5488 27.72 51.6554 26.6533 51.8688 25.8C51.6554 24.8933 51.5488 23.8267 51.5488 22.6C51.5488 21.32 51.6554 20.2533 51.8688 19.4C51.6554 18.4933 51.5488 17.4267 51.5488 16.2C51.5488 14.92 51.6554 13.8533 51.8688 13H49.4688C49.2554 12.0933 49.1488 11.0267 49.1488 9.8C49.1488 8.52 49.2554 7.45333 49.4688 6.6H41.4688C41.6821 7.45333 41.7888 8.52 41.7888 9.8C41.7888 11.0267 41.6821 12.0933 41.4688 13H39.0688C39.2821 13.8533 39.3888 14.92 39.3888 16.2C39.3888 17.4267 39.2821 18.4933 39.0688 19.4C39.2821 20.2533 39.3888 21.32 39.3888 22.6C39.3888 23.8267 39.2821 24.8933 39.0688 25.8C39.2821 26.6533 39.3888 27.72 39.3888 29C39.3888 30.2267 39.2821 31.2933 39.0688 32.2H41.4688C41.6821 33.0533 41.7888 34.12 41.7888 35.4C41.7888 36.6267 41.6821 37.6933 41.4688 38.6H49.4688C49.2554 37.6933 49.1488 36.6267 49.1488 35.4C49.1488 34.12 49.2554 33.0533 49.4688 32.2H51.8688ZM90.3 6.6C90.5133 7.45333 90.62 8.52 90.62 9.8C90.62 11.0267 90.5133 12.0933 90.3 13C90.5133 13.8533 90.62 14.92 90.62 16.2C90.62 17.4267 90.5133 18.4933 90.3 19.4C90.5133 20.2533 90.62 21.32 90.62 22.6C90.62 23.8267 90.5133 24.8933 90.3 25.8C90.5133 26.6533 90.62 27.72 90.62 29C90.62 30.2267 90.5133 31.2933 90.3 32.2C90.5133 33.0533 90.62 34.12 90.62 35.4C90.62 36.6267 90.5133 37.6933 90.3 38.6C90.5133 39.4533 90.62 40.52 90.62 41.8C90.62 43.0267 90.5133 44.0933 90.3 45H83.9C83.6867 44.0933 83.58 43.0267 83.58 41.8C83.58 40.52 83.6867 39.4533 83.9 38.6C83.6867 37.6933 83.58 36.6267 83.58 35.4C83.58 34.12 83.6867 33.0533 83.9 32.2C83.6867 31.2933 83.58 30.2267 83.58 29C83.58 27.72 83.6867 26.6533 83.9 25.8H71.1C71.3133 26.6533 71.42 27.72 71.42 29C71.42 30.2267 71.3133 31.2933 71.1 32.2C71.3133 33.0533 71.42 34.12 71.42 35.4C71.42 36.6267 71.3133 37.6933 71.1 38.6C71.3133 39.4533 71.42 40.52 71.42 41.8C71.42 43.0267 71.3133 44.0933 71.1 45H64.7C64.4867 44.0933 64.38 43.0267 64.38 41.8C64.38 40.52 64.4867 39.4533 64.7 38.6C64.4867 37.6933 64.38 36.6267 64.38 35.4C64.38 34.12 64.4867 33.0533 64.7 32.2C64.4867 31.2933 64.38 30.2267 64.38 29C64.38 27.72 64.4867 26.6533 64.7 25.8C64.4867 24.8933 64.38 23.8267 64.38 22.6C64.38 21.32 64.4867 20.2533 64.7 19.4C64.4867 18.4933 64.38 17.4267 64.38 16.2C64.38 14.92 64.4867 13.8533 64.7 13C64.4867 12.0933 64.38 11.0267 64.38 9.8C64.38 8.52 64.4867 7.45333 64.7 6.6C64.4867 5.69333 64.38 4.62667 64.38 3.4C64.38 2.12 64.4867 1.05333 64.7 0.2H71.1C71.3133 1.05333 71.42 2.12 71.42 3.4C71.42 4.62667 71.3133 5.69333 71.1 6.6C71.3133 7.45333 71.42 8.52 71.42 9.8C71.42 11.0267 71.3133 12.0933 71.1 13C71.3133 13.8533 71.42 14.92 71.42 16.2C71.42 17.4267 71.3133 18.4933 71.1 19.4H83.9C83.6867 18.4933 83.58 17.4267 83.58 16.2C83.58 14.92 83.6867 13.8533 83.9 13C83.6867 12.0933 83.58 11.0267 83.58 9.8C83.58 8.52 83.6867 7.45333 83.9 6.6C83.6867 5.69333 83.58 4.62667 83.58 3.4C83.58 2.12 83.6867 1.05333 83.9 0.2H90.3C90.5133 1.05333 90.62 2.12 90.62 3.4C90.62 4.62667 90.5133 5.69333 90.3 6.6ZM122.331 6.6C122.545 7.45333 122.651 8.52 122.651 9.8C122.651 11.0267 122.545 12.0933 122.331 13C122.545 13.8533 122.651 14.92 122.651 16.2C122.651 17.4267 122.545 18.4933 122.331 19.4C122.545 20.2533 122.651 21.32 122.651 22.6C122.651 23.8267 122.545 24.8933 122.331 25.8C122.545 26.6533 122.651 27.72 122.651 29C122.651 30.2267 122.545 31.2933 122.331 32.2C122.545 33.0533 122.651 34.12 122.651 35.4C122.651 36.6267 122.545 37.6933 122.331 38.6C122.545 39.4533 122.651 40.52 122.651 41.8C122.651 43.0267 122.545 44.0933 122.331 45H115.931C115.718 44.0933 115.611 43.0267 115.611 41.8C115.611 40.52 115.718 39.4533 115.931 38.6H111.931C111.718 37.6933 111.611 36.6267 111.611 35.4C111.611 34.12 111.718 33.0533 111.931 32.2H109.531C109.318 31.2933 109.211 30.2267 109.211 29C109.211 27.72 109.318 26.6533 109.531 25.8H106.331C106.118 24.8933 106.011 23.8267 106.011 22.6C106.011 21.32 106.118 20.2533 106.331 19.4H103.131C103.345 20.2533 103.451 21.32 103.451 22.6C103.451 23.8267 103.345 24.8933 103.131 25.8C103.345 26.6533 103.451 27.72 103.451 29C103.451 30.2267 103.345 31.2933 103.131 32.2C103.345 33.0533 103.451 34.12 103.451 35.4C103.451 36.6267 103.345 37.6933 103.131 38.6C103.345 39.4533 103.451 40.52 103.451 41.8C103.451 43.0267 103.345 44.0933 103.131 45H96.7313C96.5179 44.0933 96.4113 43.0267 96.4113 41.8C96.4113 40.52 96.5179 39.4533 96.7313 38.6C96.5179 37.6933 96.4113 36.6267 96.4113 35.4C96.4113 34.12 96.5179 33.0533 96.7313 32.2C96.5179 31.2933 96.4113 30.2267 96.4113 29C96.4113 27.72 96.5179 26.6533 96.7313 25.8C96.5179 24.8933 96.4113 23.8267 96.4113 22.6C96.4113 21.32 96.5179 20.2533 96.7313 19.4C96.5179 18.4933 96.4113 17.4267 96.4113 16.2C96.4113 14.92 96.5179 13.8533 96.7313 13C96.5179 12.0933 96.4113 11.0267 96.4113 9.8C96.4113 8.52 96.5179 7.45333 96.7313 6.6C96.5179 5.69333 96.4113 4.62667 96.4113 3.4C96.4113 2.12 96.5179 1.05333 96.7313 0.2H104.731C104.945 1.05333 105.051 2.12 105.051 3.4C105.051 4.62667 104.945 5.69333 104.731 6.6H107.131C107.345 7.45333 107.451 8.52 107.451 9.8C107.451 11.0267 107.345 12.0933 107.131 13H109.531C109.745 13.8533 109.851 14.92 109.851 16.2C109.851 17.4267 109.745 18.4933 109.531 19.4H112.731C112.945 20.2533 113.051 21.32 113.051 22.6C113.051 23.8267 112.945 24.8933 112.731 25.8H115.931C115.718 24.8933 115.611 23.8267 115.611 22.6C115.611 21.32 115.718 20.2533 115.931 19.4C115.718 18.4933 115.611 17.4267 115.611 16.2C115.611 14.92 115.718 13.8533 115.931 13C115.718 12.0933 115.611 11.0267 115.611 9.8C115.611 8.52 115.718 7.45333 115.931 6.6C115.718 5.69333 115.611 4.62667 115.611 3.4C115.611 2.12 115.718 1.05333 115.931 0.2H122.331C122.545 1.05333 122.651 2.12 122.651 3.4C122.651 4.62667 122.545 5.69333 122.331 6.6ZM31.3618 70.68C31.3618 71.232 31.3138 71.712 31.2178 72.12C31.3138 72.504 31.3618 72.984 31.3618 73.56C31.3618 74.112 31.3138 74.592 31.2178 75H28.3378C28.2418 74.592 28.1938 74.112 28.1938 73.56C28.1938 72.984 28.2418 72.504 28.3378 72.12C28.2418 71.712 28.1938 71.232 28.1938 70.68C28.1938 70.104 28.2418 69.624 28.3378 69.24H22.5778C22.6738 69.624 22.7218 70.104 22.7218 70.68C22.7218 71.232 22.6738 71.712 22.5778 72.12C22.6738 72.504 22.7218 72.984 22.7218 73.56C22.7218 74.112 22.6738 74.592 22.5778 75H19.6978C19.6018 74.592 19.5538 74.112 19.5538 73.56C19.5538 72.984 19.6018 72.504 19.6978 72.12C19.6018 71.712 19.5538 71.232 19.5538 70.68C19.5538 70.104 19.6018 69.624 19.6978 69.24H20.7778C20.6818 68.832 20.6338 68.352 20.6338 67.8C20.6338 67.224 20.6818 66.744 20.7778 66.36C20.6818 65.952 20.6338 65.472 20.6338 64.92C20.6338 64.344 20.6818 63.864 20.7778 63.48H21.4978C21.4018 63.072 21.3538 62.592 21.3538 62.04C21.3538 61.464 21.4018 60.984 21.4978 60.6H22.5778C22.4818 60.192 22.4338 59.712 22.4338 59.16C22.4338 58.584 22.4818 58.104 22.5778 57.72H23.2978C23.2018 57.312 23.1538 56.832 23.1538 56.28C23.1538 55.704 23.2018 55.224 23.2978 54.84H27.6178C27.7138 55.224 27.7618 55.704 27.7618 56.28C27.7618 56.832 27.7138 57.312 27.6178 57.72H28.3378C28.4338 58.104 28.4818 58.584 28.4818 59.16C28.4818 59.712 28.4338 60.192 28.3378 60.6H29.4178C29.5138 60.984 29.5618 61.464 29.5618 62.04C29.5618 62.592 29.5138 63.072 29.4178 63.48H30.1378C30.2338 63.864 30.2818 64.344 30.2818 64.92C30.2818 65.472 30.2338 65.952 30.1378 66.36C30.2338 66.744 30.2818 67.224 30.2818 67.8C30.2818 68.352 30.2338 68.832 30.1378 69.24H31.2178C31.3138 69.624 31.3618 70.104 31.3618 70.68ZM27.2578 66.36C27.1618 65.952 27.1138 65.472 27.1138 64.92C27.1138 64.344 27.1618 63.864 27.2578 63.48H26.5378C26.4418 63.072 26.3938 62.592 26.3938 62.04C26.3938 61.464 26.4418 60.984 26.5378 60.6H24.3778C24.4738 60.984 24.5218 61.464 24.5218 62.04C24.5218 62.592 24.4738 63.072 24.3778 63.48H23.6578C23.7538 63.864 23.8018 64.344 23.8018 64.92C23.8018 65.472 23.7538 65.952 23.6578 66.36H27.2578ZM45.6319 57.72C45.7279 58.104 45.7759 58.584 45.7759 59.16C45.7759 59.712 45.7279 60.192 45.6319 60.6C45.7279 60.984 45.7759 61.464 45.7759 62.04C45.7759 62.592 45.7279 63.072 45.6319 63.48C45.7279 63.864 45.7759 64.344 45.7759 64.92C45.7759 65.472 45.7279 65.952 45.6319 66.36C45.7279 66.744 45.7759 67.224 45.7759 67.8C45.7759 68.352 45.7279 68.832 45.6319 69.24C45.7279 69.624 45.7759 70.104 45.7759 70.68C45.7759 71.232 45.7279 71.712 45.6319 72.12C45.7279 72.504 45.7759 72.984 45.7759 73.56C45.7759 74.112 45.7279 74.592 45.6319 75H42.7519C42.6559 74.592 42.6079 74.112 42.6079 73.56C42.6079 72.984 42.6559 72.504 42.7519 72.12H40.9519C40.8559 71.712 40.8079 71.232 40.8079 70.68C40.8079 70.104 40.8559 69.624 40.9519 69.24H39.8719C39.7759 68.832 39.7279 68.352 39.7279 67.8C39.7279 67.224 39.7759 66.744 39.8719 66.36H38.4319C38.3359 65.952 38.2879 65.472 38.2879 64.92C38.2879 64.344 38.3359 63.864 38.4319 63.48H36.9919C37.0879 63.864 37.1359 64.344 37.1359 64.92C37.1359 65.472 37.0879 65.952 36.9919 66.36C37.0879 66.744 37.1359 67.224 37.1359 67.8C37.1359 68.352 37.0879 68.832 36.9919 69.24C37.0879 69.624 37.1359 70.104 37.1359 70.68C37.1359 71.232 37.0879 71.712 36.9919 72.12C37.0879 72.504 37.1359 72.984 37.1359 73.56C37.1359 74.112 37.0879 74.592 36.9919 75H34.1119C34.0159 74.592 33.9679 74.112 33.9679 73.56C33.9679 72.984 34.0159 72.504 34.1119 72.12C34.0159 71.712 33.9679 71.232 33.9679 70.68C33.9679 70.104 34.0159 69.624 34.1119 69.24C34.0159 68.832 33.9679 68.352 33.9679 67.8C33.9679 67.224 34.0159 66.744 34.1119 66.36C34.0159 65.952 33.9679 65.472 33.9679 64.92C33.9679 64.344 34.0159 63.864 34.1119 63.48C34.0159 63.072 33.9679 62.592 33.9679 62.04C33.9679 61.464 34.0159 60.984 34.1119 60.6C34.0159 60.192 33.9679 59.712 33.9679 59.16C33.9679 58.584 34.0159 58.104 34.1119 57.72C34.0159 57.312 33.9679 56.832 33.9679 56.28C33.9679 55.704 34.0159 55.224 34.1119 54.84H37.7119C37.8079 55.224 37.8559 55.704 37.8559 56.28C37.8559 56.832 37.8079 57.312 37.7119 57.72H38.7919C38.8879 58.104 38.9359 58.584 38.9359 59.16C38.9359 59.712 38.8879 60.192 38.7919 60.6H39.8719C39.9679 60.984 40.0159 61.464 40.0159 62.04C40.0159 62.592 39.9679 63.072 39.8719 63.48H41.3119C41.4079 63.864 41.4559 64.344 41.4559 64.92C41.4559 65.472 41.4079 65.952 41.3119 66.36H42.7519C42.6559 65.952 42.6079 65.472 42.6079 64.92C42.6079 64.344 42.6559 63.864 42.7519 63.48C42.6559 63.072 42.6079 62.592 42.6079 62.04C42.6079 61.464 42.6559 60.984 42.7519 60.6C42.6559 60.192 42.6079 59.712 42.6079 59.16C42.6079 58.584 42.6559 58.104 42.7519 57.72C42.6559 57.312 42.6079 56.832 42.6079 56.28C42.6079 55.704 42.6559 55.224 42.7519 54.84H45.6319C45.7279 55.224 45.7759 55.704 45.7759 56.28C45.7759 56.832 45.7279 57.312 45.6319 57.72ZM57.8859 72.12C57.9819 72.504 58.0299 72.984 58.0299 73.56C58.0299 74.112 57.9819 74.592 57.8859 75H50.6859C50.5899 74.592 50.5419 74.112 50.5419 73.56C50.5419 72.984 50.5899 72.504 50.6859 72.12H52.8459C52.7499 71.712 52.7019 71.232 52.7019 70.68C52.7019 70.104 52.7499 69.624 52.8459 69.24C52.7499 68.832 52.7019 68.352 52.7019 67.8C52.7019 67.224 52.7499 66.744 52.8459 66.36C52.7499 65.952 52.7019 65.472 52.7019 64.92C52.7019 64.344 52.7499 63.864 52.8459 63.48C52.7499 63.072 52.7019 62.592 52.7019 62.04C52.7019 61.464 52.7499 60.984 52.8459 60.6C52.7499 60.192 52.7019 59.712 52.7019 59.16C52.7019 58.584 52.7499 58.104 52.8459 57.72H50.6859C50.5899 57.312 50.5419 56.832 50.5419 56.28C50.5419 55.704 50.5899 55.224 50.6859 54.84H57.8859C57.9819 55.224 58.0299 55.704 58.0299 56.28C58.0299 56.832 57.9819 57.312 57.8859 57.72H55.7259C55.8219 58.104 55.8699 58.584 55.8699 59.16C55.8699 59.712 55.8219 60.192 55.7259 60.6C55.8219 60.984 55.8699 61.464 55.8699 62.04C55.8699 62.592 55.8219 63.072 55.7259 63.48C55.8219 63.864 55.8699 64.344 55.8699 64.92C55.8699 65.472 55.8219 65.952 55.7259 66.36C55.8219 66.744 55.8699 67.224 55.8699 67.8C55.8699 68.352 55.8219 68.832 55.7259 69.24C55.8219 69.624 55.8699 70.104 55.8699 70.68C55.8699 71.232 55.8219 71.712 55.7259 72.12H57.8859ZM74.46 57.72C74.556 58.104 74.604 58.584 74.604 59.16C74.604 59.712 74.556 60.192 74.46 60.6C74.556 60.984 74.604 61.464 74.604 62.04C74.604 62.592 74.556 63.072 74.46 63.48C74.556 63.864 74.604 64.344 74.604 64.92C74.604 65.472 74.556 65.952 74.46 66.36C74.556 66.744 74.604 67.224 74.604 67.8C74.604 68.352 74.556 68.832 74.46 69.24C74.556 69.624 74.604 70.104 74.604 70.68C74.604 71.232 74.556 71.712 74.46 72.12C74.556 72.504 74.604 72.984 74.604 73.56C74.604 74.112 74.556 74.592 74.46 75H71.58C71.484 74.592 71.436 74.112 71.436 73.56C71.436 72.984 71.484 72.504 71.58 72.12C71.484 71.712 71.436 71.232 71.436 70.68C71.436 70.104 71.484 69.624 71.58 69.24C71.484 68.832 71.436 68.352 71.436 67.8C71.436 67.224 71.484 66.744 71.58 66.36C71.484 65.952 71.436 65.472 71.436 64.92C71.436 64.344 71.484 63.864 71.58 63.48C71.484 63.072 71.436 62.592 71.436 62.04C71.436 61.464 71.484 60.984 71.58 60.6H70.5C70.596 60.984 70.644 61.464 70.644 62.04C70.644 62.592 70.596 63.072 70.5 63.48C70.596 63.864 70.644 64.344 70.644 64.92C70.644 65.472 70.596 65.952 70.5 66.36H69.78C69.876 66.744 69.924 67.224 69.924 67.8C69.924 68.352 69.876 68.832 69.78 69.24C69.876 69.624 69.924 70.104 69.924 70.68C69.924 71.232 69.876 71.712 69.78 72.12H67.62C67.524 71.712 67.476 71.232 67.476 70.68C67.476 70.104 67.524 69.624 67.62 69.24C67.524 68.832 67.476 68.352 67.476 67.8C67.476 67.224 67.524 66.744 67.62 66.36H66.9C66.804 65.952 66.756 65.472 66.756 64.92C66.756 64.344 66.804 63.864 66.9 63.48C66.804 63.072 66.756 62.592 66.756 62.04C66.756 61.464 66.804 60.984 66.9 60.6H65.82C65.916 60.984 65.964 61.464 65.964 62.04C65.964 62.592 65.916 63.072 65.82 63.48C65.916 63.864 65.964 64.344 65.964 64.92C65.964 65.472 65.916 65.952 65.82 66.36C65.916 66.744 65.964 67.224 65.964 67.8C65.964 68.352 65.916 68.832 65.82 69.24C65.916 69.624 65.964 70.104 65.964 70.68C65.964 71.232 65.916 71.712 65.82 72.12C65.916 72.504 65.964 72.984 65.964 73.56C65.964 74.112 65.916 74.592 65.82 75H62.94C62.844 74.592 62.796 74.112 62.796 73.56C62.796 72.984 62.844 72.504 62.94 72.12C62.844 71.712 62.796 71.232 62.796 70.68C62.796 70.104 62.844 69.624 62.94 69.24C62.844 68.832 62.796 68.352 62.796 67.8C62.796 67.224 62.844 66.744 62.94 66.36C62.844 65.952 62.796 65.472 62.796 64.92C62.796 64.344 62.844 63.864 62.94 63.48C62.844 63.072 62.796 62.592 62.796 62.04C62.796 61.464 62.844 60.984 62.94 60.6C62.844 60.192 62.796 59.712 62.796 59.16C62.796 58.584 62.844 58.104 62.94 57.72C62.844 57.312 62.796 56.832 62.796 56.28C62.796 55.704 62.844 55.224 62.94 54.84H66.54C66.636 55.224 66.684 55.704 66.684 56.28C66.684 56.832 66.636 57.312 66.54 57.72H67.62C67.716 58.104 67.764 58.584 67.764 59.16C67.764 59.712 67.716 60.192 67.62 60.6H68.16C68.256 60.984 68.304 61.464 68.304 62.04C68.304 62.592 68.256 63.072 68.16 63.48H69.24C69.144 63.072 69.096 62.592 69.096 62.04C69.096 61.464 69.144 60.984 69.24 60.6H69.78C69.684 60.192 69.636 59.712 69.636 59.16C69.636 58.584 69.684 58.104 69.78 57.72H70.86C70.764 57.312 70.716 56.832 70.716 56.28C70.716 55.704 70.764 55.224 70.86 54.84H74.46C74.556 55.224 74.604 55.704 74.604 56.28C74.604 56.832 74.556 57.312 74.46 57.72ZM81.6741 66.36C81.7701 66.744 81.8181 67.224 81.8181 67.8C81.8181 68.352 81.7701 68.832 81.6741 69.24C81.7701 69.624 81.8181 70.104 81.8181 70.68C81.8181 71.232 81.7701 71.712 81.6741 72.12H87.4341C87.5301 72.504 87.5781 72.984 87.5781 73.56C87.5781 74.112 87.5301 74.592 87.4341 75H78.7941C78.6981 74.592 78.6501 74.112 78.6501 73.56C78.6501 72.984 78.6981 72.504 78.7941 72.12C78.6981 71.712 78.6501 71.232 78.6501 70.68C78.6501 70.104 78.6981 69.624 78.7941 69.24C78.6981 68.832 78.6501 68.352 78.6501 67.8C78.6501 67.224 78.6981 66.744 78.7941 66.36C78.6981 65.952 78.6501 65.472 78.6501 64.92C78.6501 64.344 78.6981 63.864 78.7941 63.48C78.6981 63.072 78.6501 62.592 78.6501 62.04C78.6501 61.464 78.6981 60.984 78.7941 60.6C78.6981 60.192 78.6501 59.712 78.6501 59.16C78.6501 58.584 78.6981 58.104 78.7941 57.72C78.6981 57.312 78.6501 56.832 78.6501 56.28C78.6501 55.704 78.6981 55.224 78.7941 54.84H87.4341C87.5301 55.224 87.5781 55.704 87.5781 56.28C87.5781 56.832 87.5301 57.312 87.4341 57.72H81.6741C81.7701 58.104 81.8181 58.584 81.8181 59.16C81.8181 59.712 81.7701 60.192 81.6741 60.6C81.7701 60.984 81.8181 61.464 81.8181 62.04C81.8181 62.592 81.7701 63.072 81.6741 63.48H87.4341C87.5301 63.864 87.5781 64.344 87.5781 64.92C87.5781 65.472 87.5301 65.952 87.4341 66.36H81.6741ZM103.288 66.36C103.384 66.744 103.432 67.224 103.432 67.8C103.432 68.352 103.384 68.832 103.288 69.24C103.384 69.624 103.432 70.104 103.432 70.68C103.432 71.232 103.384 71.712 103.288 72.12H101.848C101.944 72.504 101.992 72.984 101.992 73.56C101.992 74.112 101.944 74.592 101.848 75H93.2081C93.1121 74.592 93.0641 74.112 93.0641 73.56C93.0641 72.984 93.1121 72.504 93.2081 72.12H91.7681C91.6721 71.712 91.6241 71.232 91.6241 70.68C91.6241 70.104 91.6721 69.624 91.7681 69.24H94.6481C94.7441 69.624 94.7921 70.104 94.7921 70.68C94.7921 71.232 94.7441 71.712 94.6481 72.12H100.408C100.312 71.712 100.264 71.232 100.264 70.68C100.264 70.104 100.312 69.624 100.408 69.24C100.312 68.832 100.264 68.352 100.264 67.8C100.264 67.224 100.312 66.744 100.408 66.36H93.2081C93.1121 65.952 93.0641 65.472 93.0641 64.92C93.0641 64.344 93.1121 63.864 93.2081 63.48H91.7681C91.6721 63.072 91.6241 62.592 91.6241 62.04C91.6241 61.464 91.6721 60.984 91.7681 60.6C91.6721 60.192 91.6241 59.712 91.6241 59.16C91.6241 58.584 91.6721 58.104 91.7681 57.72H93.2081C93.1121 57.312 93.0641 56.832 93.0641 56.28C93.0641 55.704 93.1121 55.224 93.2081 54.84H101.848C101.944 55.224 101.992 55.704 101.992 56.28C101.992 56.832 101.944 57.312 101.848 57.72H103.288C103.384 58.104 103.432 58.584 103.432 59.16C103.432 59.712 103.384 60.192 103.288 60.6H100.408C100.312 60.192 100.264 59.712 100.264 59.16C100.264 58.584 100.312 58.104 100.408 57.72H94.6481C94.7441 58.104 94.7921 58.584 94.7921 59.16C94.7921 59.712 94.7441 60.192 94.6481 60.6C94.7441 60.984 94.7921 61.464 94.7921 62.04C94.7921 62.592 94.7441 63.072 94.6481 63.48H101.848C101.944 63.864 101.992 64.344 101.992 64.92C101.992 65.472 101.944 65.952 101.848 66.36H103.288Z" fill="white"/>
</svg>
